<?xml version="1.0" encoding="utf-8"?>
<!-- Generator: Adobe Illustrator 26.3.1, SVG Export Plug-In . SVG Version: 6.00 Build 0)  -->
<svg version="1.1" xmlns="http://www.w3.org/2000/svg" xmlns:xlink="http://www.w3.org/1999/xlink" x="0px" y="0px"
	 viewBox="0 0 700 700" style="enable-background:new 0 0 700 700;" xml:space="preserve">
<style type="text/css">
	.st0{display:none;}
	.st1{display:inline;}
	.st2{fill:#001E36;}
	.st3{fill:#31A8FF;}
	.st4{display:inline;fill:#330000;}
	.st5{fill:#FF9A00;}
	.st6{fill:#00005B;}
	.st7{fill:#9999FF;}
	.st8{display:inline;fill:#E65100;}
	.st9{display:inline;fill:#FF6D00;}
	.st10{display:inline;fill:#FFFFFF;}
	.st11{display:inline;fill:#EEEEEE;}
	.st12{fill:#264DE4;}
	.st13{fill:#2965F1;}
	.st14{fill:#EBEBEB;}
	.st15{fill:#FFFFFF;}
	.st16{fill:#F7DF1E;}
	.st17{display:inline;fill:#DD0031;}
	.st18{display:inline;fill:#C3002F;}
	.st19{fill:#61DAFB;}
	.st20{display:none;fill:#563D7C;}
	.st21{display:none;fill:#FFFFFF;}
	.st22{display:none;fill:url(#SVGID_1_);}
	.st23{display:none;fill:url(#SVGID_00000166639534491295210370000004136269699404154282_);stroke:#FFFFFF;}
	.st24{display:inline;fill-rule:evenodd;clip-rule:evenodd;fill:#3949AB;}
	.st25{display:inline;fill-rule:evenodd;clip-rule:evenodd;fill:#283593;}
	.st26{display:inline;fill-rule:evenodd;clip-rule:evenodd;fill:#5C6BC0;}
	.st27{display:inline;fill-rule:evenodd;clip-rule:evenodd;fill:#FFFFFF;}
	.st28{display:none;fill:#5C8DBC;}
	.st29{display:none;fill:#1A4674;}
	.st30{display:none;fill:#1B598E;}
	.st31{fill:#4E7896;}
	.st32{fill:#F58219;}
	.st33{display:none;fill:#4E7896;}
</style>
<g id="svg20" xmlns:sodipodi="http://sodipodi.sourceforge.net/DTD/sodipodi-0.dtd" xmlns:rdf="http://www.w3.org/1999/02/22-rdf-syntax-ns#" sodipodi:docname="adobe-photoshop-logo-2021.svg" xmlns:svg="http://www.w3.org/2000/svg" xmlns:inkscape="http://www.inkscape.org/namespaces/inkscape" xmlns:dc="http://purl.org/dc/elements/1.1/" xmlns:cc="http://creativecommons.org/ns#" class="st0">
	
		<sodipodi:namedview  bordercolor="#666666" borderopacity="1" gridtolerance="10" guidetolerance="10" id="namedview22" inkscape:current-layer="svg20" inkscape:cx="393.14717" inkscape:cy="320.92781" inkscape:pageopacity="0" inkscape:pageshadow="2" inkscape:window-height="837" inkscape:window-maximized="1" inkscape:window-width="1600" inkscape:window-x="-8" inkscape:window-y="-8" inkscape:zoom="0.71315043" objecttolerance="10" pagecolor="#ffffff" showgrid="false">
		</sodipodi:namedview>
	
		<g id="Layer_2_00000058584568180300504090000001648436709851386026_" transform="matrix(2.0606602,0,0,2.0606602,102.72078,108.90276)" inkscape:export-filename="G:\Users\suitedoalex\sites\adobe-photoshop-logo-4.png" inkscape:export-ydpi="77.645012" inkscape:export-xdpi="77.645012">
		<g id="Surfaces" class="st1">
			<g id="Photo_Surface">
				<g id="Outline_no_shadow">
					<path id="rect8" class="st2" d="M42.5,0h155C221,0,240,19,240,42.5v149c0,23.5-19,42.5-42.5,42.5h-155C19,234,0,215,0,191.5
						v-149C0,19,19,0,42.5,0z"/>
				</g>
			</g>
		</g>
		<g id="Outlined_Mnemonics_Logos" class="st1">
			<g id="Ps">
				<path id="path13" inkscape:connector-curvature="0" class="st3" d="M54,164.1V61.2c0-0.7,0.3-1.1,1-1.1c1.7,0,3.3,0,5.6-0.1
					c2.4-0.1,4.9-0.1,7.6-0.2c2.7-0.1,5.6-0.1,8.7-0.2c3.1-0.1,6.1-0.1,9.1-0.1c8.2,0,15,1,20.6,3.1c5,1.7,9.6,4.5,13.4,8.2
					c3.2,3.2,5.7,7.1,7.3,11.4c1.5,4.2,2.3,8.5,2.3,13c0,8.6-2,15.7-6,21.3c-4,5.6-9.6,9.8-16.1,12.2c-6.8,2.5-14.3,3.4-22.5,3.4
					c-2.4,0-4,0-5-0.1c-1-0.1-2.4-0.1-4.3-0.1v32.1c0.1,0.7-0.4,1.3-1.1,1.4c-0.1,0-0.2,0-0.4,0H55.2C54.4,165.4,54,165,54,164.1
					L54,164.1z M75.8,79.4V113c1.4,0.1,2.7,0.2,3.9,0.2H85c3.9,0,7.8-0.6,11.5-1.8c3.2-0.9,6-2.8,8.2-5.3c2.1-2.5,3.1-5.9,3.1-10.3
					c0.1-3.1-0.7-6.2-2.3-8.9c-1.7-2.6-4.1-4.6-7-5.7c-3.7-1.5-7.7-2.1-11.8-2c-2.6,0-4.9,0-6.8,0.1C77.9,79.2,76.5,79.3,75.8,79.4
					L75.8,79.4z"/>
				<path id="path15" inkscape:connector-curvature="0" class="st3" d="M192,106.9c-3-1.6-6.2-2.7-9.6-3.4
					c-3.7-0.8-7.4-1.3-11.2-1.3c-2-0.1-4.1,0.2-6,0.7c-1.3,0.3-2.4,1-3.1,2c-0.5,0.8-0.8,1.8-0.8,2.7c0,0.9,0.4,1.8,1,2.6
					c0.9,1.1,2.1,2,3.4,2.7c2.3,1.2,4.7,2.3,7.1,3.3c5.4,1.8,10.6,4.3,15.4,7.3c3.3,2.1,6,4.9,7.9,8.3c1.6,3.2,2.4,6.7,2.3,10.3
					c0.1,4.7-1.3,9.4-3.9,13.3c-2.8,4-6.7,7.1-11.2,8.9c-4.9,2.1-10.9,3.2-18.1,3.2c-4.6,0-9.1-0.4-13.6-1.3
					c-3.5-0.6-7-1.7-10.2-3.2c-0.7-0.4-1.2-1.1-1.1-1.9v-17.4c0-0.3,0.1-0.7,0.4-0.9c0.3-0.2,0.6-0.1,0.9,0.1
					c3.9,2.3,8,3.9,12.4,4.9c3.8,1,7.8,1.5,11.8,1.5c3.8,0,6.5-0.5,8.3-1.4c1.6-0.7,2.7-2.4,2.7-4.2c0-1.4-0.8-2.7-2.4-4
					c-1.6-1.3-4.9-2.8-9.8-4.7c-5.1-1.8-9.8-4.2-14.2-7.2c-3.1-2.2-5.7-5.1-7.6-8.5c-1.6-3.2-2.4-6.7-2.3-10.2
					c0-4.3,1.2-8.4,3.4-12.1c2.5-4,6.2-7.2,10.5-9.2c4.7-2.4,10.6-3.5,17.7-3.5c4.1,0,8.3,0.3,12.4,0.9c3,0.4,5.9,1.2,8.6,2.3
					c0.4,0.1,0.8,0.5,1,0.9c0.1,0.4,0.2,0.8,0.2,1.2v16.3c0,0.4-0.2,0.8-0.5,1C192.9,107.1,192.4,107.1,192,106.9L192,106.9z"/>
			</g>
		</g>
	</g>
	<path class="st4" d="M190.3,108.9h319.4c48.4,0,87.6,39.2,87.6,87.6v307c0,48.4-39.2,87.6-87.6,87.6H190.3
		c-48.4,0-87.6-39.2-87.6-87.6v-307C102.7,148.1,141.9,108.9,190.3,108.9z"/>
	<path class="st5" d="M342.4,398.3h-76.6l-15.6,48.4c-0.4,1.8-2.1,3.1-4,3h-38.8c-2.2,0-3-1.2-2.3-3.7l66.4-191.1
		c0.6-2,1.3-4.2,2-6.8c0.9-4.4,1.3-8.9,1.3-13.4c-0.2-1.1,0.6-2.2,1.7-2.3c0,0,0,0,0,0c0.2,0,0.4,0,0.6,0h52.7
		c1.5,0,2.4,0.6,2.7,1.7l75.3,212.3c0.7,2.2,0,3.3-2,3.3h-43.1c-1.5,0.2-3-0.8-3.3-2.3L342.4,398.3z M277.7,356.4h52.4
		c-1.3-4.4-2.9-9.4-4.6-14.9c-1.8-5.5-3.7-11.4-5.6-17.8l-6-18.9c-2-6.3-3.8-12.4-5.5-18.3c-1.7-5.9-3.2-11.2-4.5-16.1h-0.3
		c-1.9,9-4.2,17.8-7,26.5c-3.1,10-6.2,20.1-9.5,30.5C283.9,338,280.7,347.6,277.7,356.4z"/>
	<path class="st5" d="M452.5,267.6c-6.8,0.3-13.5-2.4-18.2-7.3c-4.7-5.1-7.3-11.9-7-18.9c-0.2-6.9,2.5-13.6,7.5-18.4
		c4.9-4.7,11.5-7.3,18.4-7.1c8,0,14.2,2.4,18.7,7.1c4.6,5,7,11.6,6.8,18.4c0.3,7-2.3,13.8-7.1,18.9
		C466.5,265.2,459.6,267.9,452.5,267.6z M429.6,446.4V287.8c0-2,0.9-3,2.6-3h40.8c1.8,0,2.6,1,2.6,3v158.6c0,2.2-0.9,3.3-2.6,3.3
		h-40.5C430.6,449.7,429.6,448.6,429.6,446.4z"/>
	
		<image style="overflow:visible;" width="2500" height="2500" xlink:href="C:\Users\ss403\Downloads\Adobe-AfterEffects-CC.png"  transform="matrix(0.2307 0 0 0.2307 61.617 60.617)">
	</image>
</g>
<g id="Layer_2" class="st0">
	<path class="st6" d="M524.3,104H177.6c0,0-66.4,2.6-72.5,78.1l1,338.6c0,0,0,68.9,74.6,74h343.7c0,0,67.4-3.1,72-75.1V179.1
		C596.3,179.1,593.2,111.2,524.3,104z"/>
	<g id="Layer_3" class="st1">
		<line class="st6" x1="239.9" y1="262.3" x2="171.9" y2="453.3"/>
	</g>
	<g id="vlpa">
		<g id="vlpb" class="st1">
			<g id="vlpc">
				<g id="vlpd">
					<path class="st6" d="M190.9,107.7h318.9c48.4,0,87.4,39.1,87.4,87.4v306.6c0,48.4-39.1,87.4-87.4,87.4H190.9
						c-48.4,0-87.4-39.1-87.4-87.4V195.1C103.5,146.8,142.6,107.7,190.9,107.7z"/>
				</g>
			</g>
		</g>
		<g id="vlpe" class="st1">
			<g id="vlpf">
				<path class="st7" d="M301.8,395.7h-76.5l-15.6,48.6c-0.4,1.9-2.1,3.1-3.9,2.9h-38.7c-2.3,0-2.9-1.2-2.3-3.7L231,253.6
					c0.6-2.1,1.2-3.9,2.1-6.4c0.8-4.3,1.2-8.8,1.2-13.4c-0.2-1,0.6-2.1,1.6-2.3h0.6h52.7c1.4,0,2.5,0.6,2.7,1.6L367,443.1
					c0.6,2.3,0,3.3-2.1,3.3h-43c-1.4,0.2-2.9-0.8-3.3-2.3l-16.9-49.4L301.8,395.7z M237.2,354.8h52.3c-1.2-4.3-2.9-9.5-4.7-14.8
					c-1.9-5.6-3.7-11.5-5.6-17.7c-2.1-6.4-3.9-12.6-6-18.9s-3.9-12.3-5.6-18.3c-1.6-5.8-3.1-11.1-4.5-16h-0.4
					c-1.9,8.8-4.1,17.7-7,26.5c-3.1,9.9-6.2,20.2-9.5,30.5C243.6,336.5,240.3,346.2,237.2,354.8z"/>
				<path class="st7" d="M488.2,377.2H423c0.8,6.4,2.9,12.8,6.4,18.3c3.7,5.6,8.8,9.9,15,12.3c8.2,3.5,17.3,5.3,26.3,5.1
					c7.2-0.2,14.4-0.8,21.4-2.3c6.4-0.8,12.6-2.5,18.3-4.7c1-0.8,1.6-0.4,1.6,1.6v31.5c0,0.8-0.2,1.6-0.4,2.5
					c-0.4,0.6-0.8,1-1.4,1.4c-6.6,2.9-13.4,4.9-20.6,6.2c-9.7,1.9-19.3,2.7-29.2,2.5c-15.6,0-28.8-2.5-39.5-7.2
					c-10.1-4.3-18.9-11.1-25.9-19.5c-6.6-8-11.3-17.1-14.2-27c-2.9-9.7-4.3-19.8-4.3-30c0-11.1,1.6-22,5.1-32.7
					c3.3-10.3,8.4-19.8,15.4-28.2c6.8-8.2,15.2-14.8,24.9-19.5s21.2-6.4,34.4-6.4c10.9-0.2,21.8,1.9,31.9,6.4
					c8.4,3.7,15.8,9.3,21.6,16.5c5.3,7,9.7,14.8,12.3,23.5c2.7,8.2,3.9,16.7,3.9,25.1c0,4.9-0.2,9.3-0.4,13.2
					c-0.4,3.9-0.6,6.8-0.8,8.6c-0.2,1.4-1.4,2.7-2.9,2.7c-1.2,0-3.5,0.2-6.8,0.4c-3.3,0.4-7.2,0.6-11.9,0.6S493.6,377.2,488.2,377.2
					L488.2,377.2z M423,347.2h43.4c5.3,0,9.3,0,11.7-0.2c1.6-0.2,3.3-0.6,4.7-1.6v-2.1c0-2.7-0.4-5.1-1.2-7.6
					c-3.7-11.5-14.6-19.3-26.7-18.9c-11.3-0.6-22,5.3-27.4,15.6C425.1,337.1,423.6,342,423,347.2z"/>
			</g>
		</g>
	</g>
	<path class="st8" d="M556.1,109.8H127.2L165,538.7l176.6,50.5l176.6-50.5L556.1,109.8L556.1,109.8z"/>
	<polygon class="st9" points="341.6,147.6 341.6,550 482.9,509.7 514.4,147.6 	"/>
	<path class="st10" d="M341.6,362.1v-50.5h108.5l-8.8,145.1l-99.7,32.8v-53l51.7-17.7l3.8-56.8L341.6,362.1L341.6,362.1z
		 M453.9,261.2l3.8-50.5H341.6v50.5H453.9z"/>
	<path class="st11" d="M341.6,436.5v53L242,456.7l-5-69.4h50.5l2.5,31.5L341.6,436.5z M279.8,261.2h61.8v-50.5H226.8l8.8,151.4h106
		v-50.5h-58L279.8,261.2z"/>
</g>
<g id="Layer_4" class="st0">
	<path class="st12" d="M341.4,589.2l-172.8-48l-38.5-432h423.2l-38.6,431.9L341.4,589.2L341.4,589.2z"/>
	<path class="st13" d="M481.7,513.6l32.9-369.1h-173v407.9L481.7,513.6L481.7,513.6z"/>
	<path class="st14" d="M218.3,304.7l4.7,53h118.6v-53H218.3z M208.8,197.5l4.8,53h128v-53L208.8,197.5L208.8,197.5z M341.6,442.3
		l-0.2,0.1l-59-15.9l-3.8-42.3h-53.2l7.4,83.2l108.5,30.1l0.2-0.1V442.3z"/>
	<path d="M229.6-8.2h64.2v26.8h-37.3v26.8h37.3v26.8h-64.2V-8.2z M306.6-8.2h64.2v23.3h-37.3v4.7h37.3v53.7h-64.2V49H344v-4.7h-37.3
		L306.6-8.2L306.6-8.2z M383.6-8.2h64.2v23.3h-37.3v4.7h37.3v53.7h-64.2V49H421v-4.7h-37.3L383.6-8.2L383.6-8.2z"/>
	<path class="st15" d="M464.6,304.7l9.6-107.2H341.4v53h74.7l-4.8,54.3h-69.8v53h65.2l-6.2,68.7l-59.1,15.9v55.1L450,467.4l0.8-9
		l12.5-139.5L464.6,304.7L464.6,304.7z"/>
	<rect x="101.7" y="108.6" class="st16" width="475.7" height="475.7"/>
	<path d="M421.3,480.3c9.6,15.6,22.1,27.1,44.1,27.1c18.5,0,30.4-9.3,30.4-22.1c0-15.3-12.2-20.8-32.5-29.7l-11.2-4.8
		c-32.3-13.7-53.7-31-53.7-67.4c0-33.5,25.5-59.1,65.5-59.1c28.4,0,48.9,9.9,63.6,35.8l-34.8,22.4c-7.7-13.7-15.9-19.2-28.8-19.2
		c-13.1,0-21.4,8.3-21.4,19.2c0,13.4,8.3,18.8,27.5,27.1l11.2,4.8c38,16.3,59.4,32.9,59.4,70.2c0,40.2-31.6,62.3-74.1,62.3
		c-41.5,0-68.3-19.8-81.5-45.7L421.3,480.3z M263.4,484.1c7,12.5,13.4,23,28.8,23c14.7,0,24-5.7,24-28.1V327h44.7v152.6
		c0,46.3-27.1,67.4-66.8,67.4c-35.8,0-56.5-18.5-67.1-40.8L263.4,484.1z"/>
	<g>
		<polygon class="st17" points="339.6,100.2 339.6,100.2 339.6,100.2 110.4,182 145.3,485.1 339.6,592.7 339.6,592.7 339.6,592.7 
			533.9,485.1 568.9,182 		"/>
		<polygon class="st18" points="339.6,100.2 339.6,154.9 339.6,154.7 339.6,404.1 339.6,404.1 339.6,592.7 339.6,592.7 533.9,485.1 
			568.9,182 		"/>
		<path class="st10" d="M339.6,154.7L196.3,476l0,0h53.4l0,0l28.8-71.9h121.6L429,476l0,0h53.4l0,0L339.6,154.7L339.6,154.7
			L339.6,154.7L339.6,154.7L339.6,154.7z M381.5,359.8h-83.7l41.9-100.7L381.5,359.8z"/>
	</g>
	<g class="st1">
		<path class="st19" d="M597.3,350.1c0-32.8-41-63.8-103.9-83.1c14.5-64.1,8.1-115.1-20.4-131.5c-6.6-3.8-14.2-5.6-22.6-5.6v22.5
			c4.6,0,8.4,0.9,11.5,2.6c13.7,7.9,19.7,37.8,15,76.3c-1.1,9.5-2.9,19.5-5.1,29.6c-19.8-4.8-41.3-8.6-64-11
			c-13.6-18.7-27.7-35.6-41.9-50.4c32.9-30.5,63.7-47.3,84.7-47.3v-22.5c-27.7,0-64,19.8-100.7,54c-36.7-34.1-73-53.6-100.7-53.6
			v22.5c20.9,0,51.8,16.6,84.7,47c-14.1,14.8-28.2,31.7-41.6,50.3c-22.8,2.4-44.4,6.1-64.1,11.1c-2.3-10.1-4-19.9-5.2-29.2
			c-4.7-38.5,1.1-68.5,14.7-76.4c3-1.8,7-2.6,11.6-2.6v-22.5c-8.5,0-16.1,1.8-22.8,5.6c-28.3,16.3-34.7,67.2-20.1,131.2
			c-62.7,19.4-103.5,50.3-103.5,83c0,32.8,41,63.8,103.9,83.1c-14.5,64.1-8.1,115.1,20.4,131.5c6.6,3.8,14.2,5.6,22.7,5.6
			c27.7,0,64-19.8,100.7-54c36.7,34.1,73,53.6,100.7,53.6c8.5,0,16.1-1.8,22.8-5.6c28.3-16.3,34.7-67.2,20.1-131.2
			C556.5,413.8,597.3,382.7,597.3,350.1L597.3,350.1z M466,282.8c-3.7,13-8.4,26.4-13.6,39.8c-4.1-8.1-8.5-16.1-13.2-24.2
			c-4.6-8.1-9.6-15.9-14.5-23.6C439,277,452.8,279.6,466,282.8L466,282.8z M419.9,390.2c-7.9,13.6-15.9,26.5-24.3,38.5
			c-15,1.3-30.2,2-45.6,2c-15.2,0-30.4-0.7-45.4-1.9c-8.4-12-16.5-24.8-24.4-38.3c-7.7-13.2-14.6-26.6-21-40.1
			c6.3-13.5,13.3-27,20.9-40.2c7.9-13.6,15.9-26.5,24.3-38.5c15-1.3,30.2-2,45.6-2c15.2,0,30.4,0.7,45.4,1.9
			c8.4,12,16.5,24.8,24.4,38.3c7.7,13.2,14.6,26.6,21,40.1C434.4,363.5,427.4,377,419.9,390.2L419.9,390.2z M452.4,377.1
			c5.4,13.5,10.1,27,13.9,40.1c-13.2,3.2-27.1,5.9-41.5,8.1c4.9-7.8,9.9-15.7,14.5-23.9C444,393.3,448.3,385.1,452.4,377.1
			L452.4,377.1z M350.2,484.6c-9.4-9.7-18.8-20.5-28-32.3c9.1,0.4,18.3,0.7,27.7,0.7c9.5,0,18.9-0.2,28-0.7
			C368.9,464.2,359.5,475,350.2,484.6z M275.2,425.3c-14.3-2.1-28.1-4.7-41.3-8c3.7-13,8.4-26.4,13.6-39.8
			c4.1,8.1,8.5,16.1,13.2,24.2C265.4,409.7,270.3,417.6,275.2,425.3z M349.7,215.5c9.4,9.7,18.8,20.5,28,32.3
			c-9.1-0.4-18.3-0.7-27.7-0.7c-9.5,0-18.9,0.2-28,0.7C331,235.9,340.4,225.1,349.7,215.5z M275.1,274.8
			c-4.9,7.8-9.9,15.7-14.5,23.9c-4.6,8.1-9,16.1-13.1,24.2c-5.4-13.5-10.1-27-13.9-40.1C246.8,279.7,260.7,277,275.1,274.8
			L275.1,274.8z M183.9,401.1c-35.7-15.2-58.8-35.2-58.8-51c0-15.8,23.1-35.9,58.8-51c8.7-3.7,18.1-7.1,27.9-10.2
			c5.7,19.8,13.3,40.3,22.7,61.4c-9.3,21-16.7,41.4-22.4,61.1C202.1,408.2,192.6,404.8,183.9,401.1L183.9,401.1z M238.1,545.1
			c-13.7-7.9-19.7-37.8-15-76.3c1.1-9.5,2.9-19.5,5.1-29.6c19.8,4.8,41.3,8.6,64,11c13.6,18.7,27.7,35.6,41.9,50.4
			c-32.9,30.5-63.7,47.3-84.7,47.3C244.9,547.8,241.1,546.8,238.1,545.1L238.1,545.1z M477.2,468.3c4.7,38.5-1.1,68.5-14.7,76.4
			c-3,1.8-7,2.6-11.6,2.6c-20.9,0-51.8-16.6-84.7-47c14.1-14.8,28.2-31.7,41.6-50.3c22.8-2.4,44.4-6.1,64.1-11.1
			C474.3,449.2,476.1,458.9,477.2,468.3z M516,401.1c-8.7,3.7-18.1,7.1-27.9,10.2c-5.7-19.8-13.3-40.3-22.7-61.4
			c9.3-21,16.7-41.4,22.4-61.1c10,3.1,19.5,6.6,28.3,10.3c35.7,15.2,58.8,35.2,58.8,51C574.8,365.9,551.7,385.9,516,401.1L516,401.1
			z"/>
		<circle class="st19" cx="349.9" cy="350.1" r="46.1"/>
	</g>
</g>
<g id="Layer_5">
	<path class="st20" d="M36.2,693.9c0,49,39.7,88.7,88.7,88.7h510.3c49,0,88.7-39.7,88.7-88.7V183.6c0-49-39.7-88.7-88.7-88.7H124.9
		c-49,0-88.7,39.7-88.7,88.7V693.9L36.2,693.9z"/>
	<path class="st21" d="M321.4,399.1v-97.4h85.7c8.2,0,16,0.7,23.6,2c7.6,1.4,14.3,3.8,20.1,7.3c5.8,3.5,10.5,8.4,14,14.6
		c3.5,6.2,5.2,14.2,5.2,23.9c0,17.5-5.2,30.1-15.7,37.9c-10.5,7.8-23.9,11.7-40.2,11.7L321.4,399.1L321.4,399.1z M229.8,230.6v416.4
		h201.8c18.7,0,36.8-2.3,54.5-7c17.7-4.7,33.4-11.9,47.2-21.6c13.8-9.7,24.8-22.3,32.9-37.6c8.2-15.4,12.2-33.5,12.2-54.5
		c0-26-6.3-48.3-19-66.8c-12.6-18.5-31.8-31.4-57.4-38.8c18.7-8.9,32.8-20.4,42.3-34.4c9.5-14,14.3-31.5,14.3-52.5
		c0-19.4-3.2-35.8-9.6-49c-6.4-13.2-15.5-23.8-27.1-31.8c-11.7-8-25.7-13.7-42-17.2c-16.3-3.5-34.4-5.2-54.2-5.2L229.8,230.6
		L229.8,230.6z M321.4,575.8V461.5h99.7c19.8,0,35.8,4.6,47.8,13.7C481,484.4,487,499.6,487,521c0,10.9-1.8,19.8-5.5,26.8
		c-3.7,7-8.6,12.5-14.9,16.6c-6.2,4.1-13.4,7-21.6,8.7c-8.2,1.7-16.7,2.6-25.7,2.6H321.4L321.4,575.8z"/>
	
		<linearGradient id="SVGID_1_" gradientUnits="userSpaceOnUse" x1="39.6112" y1="531.7969" x2="779.5198" y2="-55.5427" gradientTransform="matrix(1 0 0 -1 0 702)">
		<stop  offset="0" style="stop-color:#9013FE"/>
		<stop  offset="1" style="stop-color:#6610F2"/>
	</linearGradient>
	<path class="st22" d="M47.8,189.4c-1.6-45.9,34.1-88.2,82.5-88.2h495.1c48.3,0,84.1,42.3,82.5,88.2c-1.5,44.1,0.5,101.2,14.8,147.7
		c14.4,46.7,38.7,76.2,78.5,80v43c-39.8,3.8-64.1,33.3-78.5,80c-14.4,46.5-16.4,103.6-14.8,147.7c1.6,45.9-34.1,88.2-82.5,88.2
		H130.2c-48.3,0-84.1-42.3-82.5-88.2c1.5-44.1-0.5-101.2-14.8-147.7c-14.4-46.7-38.8-76.2-78.6-80v-43c39.8-3.8,64.2-33.3,78.6-80
		C47.3,290.6,49.3,233.5,47.8,189.4z"/>
	
		<linearGradient id="SVGID_00000044162039241851988160000005249179754085467560_" gradientUnits="userSpaceOnUse" x1="267.1635" y1="415.0004" x2="432.5528" y2="135.291" gradientTransform="matrix(1 0 0 -1 0 702)">
		<stop  offset="0" style="stop-color:#FFFFFF"/>
		<stop  offset="1" style="stop-color:#F1E5FC"/>
	</linearGradient>
	<path style="display:none;fill:url(#SVGID_00000044162039241851988160000005249179754085467560_);stroke:#FFFFFF;" d="M396.1,618
		c78.2,0,125.4-38.3,125.4-101.5c0-47.8-33.6-82.3-83.6-87.8v-2c36.7-6,65.5-40,65.5-78.1c0-54.2-42.8-89.5-108-89.5H248.6V618
		H396.1z M305.6,304.6h75.9c41.3,0,64.7,18.4,64.7,51.7c0,35.6-27.3,55.5-76.7,55.5h-64C305.6,411.8,305.6,304.6,305.6,304.6z
		 M305.6,572.5V454.3h75.4c54,0,82,19.9,82,58.7c0,38.8-27.3,59.4-78.7,59.4H305.6z"/>
	<g class="st0">
		<path class="st24" d="M693.1,612.7c5.1-8.8,8.2-18.7,8.2-27.6V276.3c0-8.9-3.1-18.8-8.2-27.6l-315.2,182L693.1,612.7L693.1,612.7
			L693.1,612.7z"/>
		<path class="st25" d="M405.9,788l267.4-154.4c7.7-4.4,14.7-12.1,19.8-20.9l-315.2-182l-315.2,182c5.1,8.8,12.1,16.5,19.8,20.9
			L349.8,788C365.2,796.9,390.4,796.9,405.9,788L405.9,788L405.9,788z"/>
		<path class="st26" d="M693.1,248.7c-5.1-8.8-12.1-16.5-19.8-20.9L405.9,73.4c-15.4-8.9-40.6-8.9-56,0L82.4,227.8
			c-15.4,8.9-28,30.7-28,48.5v308.8c0,8.9,3.1,18.8,8.2,27.6l315.2-182L693.1,248.7L693.1,248.7L693.1,248.7z"/>
		<path class="st27" d="M377.8,646.3c-118.9,0-215.6-96.7-215.6-215.6s96.7-215.6,215.6-215.6c76.7,0,148.3,41.3,186.7,107.8
			l-93.3,54c-19.3-33.3-55-53.9-93.4-53.9c-59.5,0-107.8,48.3-107.8,107.8c0,59.4,48.3,107.8,107.8,107.8
			c38.4,0,74.2-20.7,93.4-53.9l93.3,54C526.1,605.1,454.5,646.3,377.8,646.3L377.8,646.3L377.8,646.3z"/>
	</g>
	<path class="st28" d="M699.1,280.8c0-12.2-2.6-23.1-7.9-32.3c-5.2-9.1-13-16.8-23.4-22.8c-86.2-49.7-172.5-99.3-258.7-149
		c-23.2-13.4-45.8-12.9-68.8,0.7C305.9,97.5,134,195.9,82.8,225.6c-21.1,12.2-31.3,30.9-31.4,55.2c0,100,0,200,0,299.9
		c0,12,2.5,22.6,7.6,31.7c5.2,9.4,13.1,17.3,23.8,23.5c51.2,29.7,223,128.1,257.4,148.3c23.1,13.6,45.6,14.1,68.9,0.7
		c86.2-49.8,172.5-99.3,258.7-149c10.7-6.2,18.6-14,23.8-23.4c5.1-9.1,7.6-19.7,7.6-31.7C699.1,580.6,699.1,380.7,699.1,280.8"/>
	<path class="st29" d="M376.3,429.7L59,612.4c5.2,9.4,13.1,17.3,23.8,23.5c51.2,29.7,223,128.1,257.4,148.3
		c23.1,13.6,45.6,14.1,68.9,0.7c86.2-49.8,172.5-99.3,258.7-149c10.7-6.2,18.6-14,23.8-23.4L376.3,429.7"/>
	<path class="st29" d="M282.3,483.8c18.5,32.2,53.2,54,93,54c40.1,0,75-22,93.3-54.6l-92.3-53.5L282.3,483.8"/>
	<path class="st30" d="M699.1,280.8c0-12.2-2.6-23.1-7.9-32.3L376.3,429.7l315.3,182.6c5.1-9.1,7.6-19.7,7.6-31.7
		C699.1,580.6,699.1,380.7,699.1,280.8"/>
	<path class="st21" d="M681.8,442.8h-24.6v24.6h-24.6v-24.6h-24.6v-24.6h24.6v-24.6h24.6v24.6h24.6V442.8 M591.9,442.8h-24.6v24.6
		h-24.6v-24.6h-24.6v-24.6h24.6v-24.6h24.6v24.6h24.6V442.8"/>
	<path class="st21" d="M468.6,483.2c-18.4,32.6-53.3,54.6-93.3,54.6c-39.8,0-74.5-21.7-93-54c-9.3-16.2-14.1-34.5-14.1-53.1
		c0-59.1,48-107.1,107.1-107.1c39.6,0,74.1,21.5,92.6,53.4l93.6-53.9c-37.2-64.2-106.7-107.4-186.2-107.4
		c-118.8,0-215.1,96.3-215.1,215.1c0,39,10.4,75.5,28.5,107c37.1,64.6,106.8,108,186.6,108c80,0,149.7-43.7,186.8-108.4L468.6,483.2
		"/>
	<path class="st31" d="M281.9,446c0,0-18.1,11,12.6,14.2c37.2,4.7,56.8,3.9,97.8-3.9c0,0,11,7.1,26,12.6
		C326,508.3,209.3,466.5,281.9,446z M270,394.8c0,0-19.7,15,11,18.1c40.2,3.9,71.8,4.7,126.2-6.3c0,0,7.1,7.9,18.9,11.8
		C315,451.6,190.4,421.6,270,394.8L270,394.8z M487.7,484.7c0,0,13.4,11-15,19.7c-52.9,15.8-221.6,20.5-269,0
		c-16.6-7.1,15-17.4,25.2-18.9c10.3-2.4,15.8-2.4,15.8-2.4c-18.1-12.6-120.7,26-52.1,37.2C381.3,551,536.7,506.9,487.7,484.7
		L487.7,484.7z M290.5,341.1c0,0-86,20.5-30.8,27.6c23.7,3.1,70.2,2.4,113.6-0.8c35.5-3.1,71.1-9.5,71.1-9.5s-12.6,5.5-21.3,11
		c-87.6,22.9-255.6,12.6-207.5-11C256.6,338.8,290.5,341.1,290.5,341.1z M444.4,427.1c88.4-45.8,47.3-89.9,18.9-84.4
		c-7.1,1.6-10.3,3.1-10.3,3.1s2.4-4.7,7.9-6.3c56-19.7,100.2,59.2-18.1,89.9C442.8,429.5,443.6,428.7,444.4,427.1L444.4,427.1z
		 M299.2,551.7c85.2,5.5,215.3-3.1,218.5-43.4c0,0-6.3,15.8-70.2,27.6c-72.6,13.4-162.5,11.8-215.3,3.1
		C232.2,539.1,243.2,548.6,299.2,551.7L299.2,551.7z"/>
	<path class="st32" d="M390.6,80.8c0,0,48.9,49.7-46.5,124.6c-76.5,60.7-17.4,95.4,0,134.9c-45-40.2-77.3-75.7-55.2-108.9
		C321.3,182.6,410.4,158.9,390.6,80.8z M365.4,307.2c22.9,26-6.3,49.7-6.3,49.7s58.4-30,31.6-67.1c-24.5-35.5-43.4-52.9,59.2-112
		C449.8,177.8,288.1,218,365.4,307.2L365.4,307.2z"/>
	<path class="st33" d="M324.7,720.6v-77.3c0-19.7-11-33.1-38.7-33.1c-15.8,0-29.2,3.9-41,8.7L249,633c8.7-3.1,19.7-6.3,31.6-6.3
		c15,0,22.1,6.3,22.1,18.9v10.3h-7.9c-37.9,0-55.2,14.2-55.2,37.2c0,18.9,11.8,30,33.1,30c13.4,0,23.7-6.3,33.1-14.2l1.6,11.8
		L324.7,720.6L324.7,720.6z M302.6,695.3c-7.9,7.1-16.6,11-24.5,11c-10.3,0-16.6-6.3-16.6-17.4c0-11.1,6.3-18.9,31.6-18.9h9.5V695.3
		L302.6,695.3z M398.8,720.6h-27.6l-33.1-108.1h23.7l20.5,66.3l4.7,19.7c10.3-28.4,18.1-57.6,21.3-86H432
		C425.7,648,414.6,686.7,398.8,720.6L398.8,720.6z M526.6,720.6v-77.3c0-19.7-11-33.1-38.7-33.1c-15.8,0-29.2,3.9-41,8.7l3.1,14.2
		c9.5-3.1,20.5-6.3,32.3-6.3c15,0,22.1,6.3,22.1,18.9v10.3h-7.9c-37.9,0-55.2,14.2-55.2,37.2c0,18.9,11,30,32.3,30
		c14.2,0,24.5-6.3,33.9-14.2l1.6,11.8L526.6,720.6L526.6,720.6z M504.5,695.3c-7.9,7.1-16.6,11-24.5,11c-10.3,0-16.6-6.3-16.6-17.4
		c0-11.1,6.3-18.9,31.6-18.9h9.5L504.5,695.3L504.5,695.3z M215.1,738.7c-6.3,9.5-15.8,16.6-27.6,20.5l-10.3-12.6
		c7.9-4.7,15.8-11.8,18.9-18.1c3.1-5.5,3.9-13.4,3.9-31.6v-123h23.7v121.5C223.7,719.8,221.4,729.3,215.1,738.7L215.1,738.7z"/>
</g>
</svg>
